<svg width="144" height="48" viewBox="0 0 144 48" fill="none" xmlns="http://www.w3.org/2000/svg">
<path fill-rule="evenodd" clip-rule="evenodd" d="M16.7028 3.01304L16.4042 1.20001L16.1056 3.01304C15.9118 4.18961 14.9896 5.11177 13.813 5.30557L12 5.60421L13.813 5.90284C14.9896 6.09664 15.9118 7.0188 16.1056 8.19537L16.4042 10.0084L16.7028 8.19537C16.8966 7.0188 17.8188 6.09664 18.9954 5.90284L20.8084 5.60421L18.9954 5.30557C17.8188 5.11177 16.8966 4.18961 16.7028 3.01304ZM24.0637 6.94461L24.3104 8.44233C24.4704 9.41428 25.2322 10.1761 26.2042 10.3362L27.7019 10.5829L26.2042 10.8296C25.2322 10.9897 24.4704 11.7514 24.3104 12.7234L24.0637 14.2211L23.817 12.7234C23.6569 11.7514 22.8951 10.9897 21.9231 10.8296L20.4254 10.5829L21.9231 10.3362C22.8951 10.1761 23.6569 9.41428 23.817 8.44233L24.0637 6.94461Z" fill="white"/>
<path d="M86.7021 38.7398C86.8633 37.8434 87.1554 37.0679 87.5784 36.4133C88.0014 35.7486 88.51 35.245 89.1042 34.9026C89.6984 34.5501 90.3279 34.3738 90.9926 34.3738C91.5465 34.3738 92.0047 34.4896 92.3673 34.7213C92.7299 34.9429 92.9817 35.25 93.1227 35.6428L93.3342 34.4796H96.6729L95.1621 43H91.8235L92.035 41.8367C91.753 42.2295 91.3904 42.5417 90.9472 42.7734C90.5041 42.995 90.0056 43.1058 89.4516 43.1058C88.5956 43.1058 87.9057 42.8187 87.382 42.2446C86.8582 41.6706 86.5964 40.8749 86.5964 39.8577C86.5964 39.475 86.6316 39.1024 86.7021 38.7398ZM92.5788 38.7398C92.599 38.6491 92.609 38.5283 92.609 38.3772C92.609 38.0348 92.5184 37.7729 92.3371 37.5916C92.1558 37.4003 91.9091 37.3046 91.5969 37.3046C91.2343 37.3046 90.912 37.4305 90.63 37.6823C90.3581 37.9341 90.1818 38.2866 90.1012 38.7398C90.0811 38.8304 90.071 38.9513 90.071 39.1024C90.071 39.4448 90.1617 39.7117 90.343 39.903C90.5242 40.0843 90.771 40.175 91.0832 40.175C91.4458 40.175 91.763 40.0491 92.035 39.7973C92.317 39.5455 92.4982 39.193 92.5788 38.7398ZM106.594 34.4796L105.083 43H101.729L101.956 41.7159C101.623 42.1187 101.215 42.4461 100.732 42.6979C100.249 42.9396 99.7097 43.0604 99.1155 43.0604C98.2896 43.0604 97.6551 42.8237 97.212 42.3504C96.7688 41.867 96.5473 41.2073 96.5473 40.3714C96.5473 40.0692 96.5775 39.752 96.6379 39.4196L97.5141 34.4796H100.853L100.052 38.9966C100.032 39.1577 100.022 39.2685 100.022 39.329C100.022 39.6412 100.108 39.8829 100.279 40.0541C100.46 40.2253 100.707 40.3109 101.019 40.3109C101.382 40.3109 101.689 40.1951 101.941 39.9635C102.192 39.7318 102.358 39.4146 102.439 39.0117L103.24 34.4796H106.594ZM113.471 34.4191C114.297 34.4191 114.932 34.6609 115.375 35.1443C115.818 35.6176 116.04 36.2723 116.04 37.1082C116.04 37.4104 116.009 37.7276 115.949 38.06L115.073 43H111.734L112.535 38.483C112.555 38.3218 112.565 38.211 112.565 38.1506C112.565 37.8384 112.474 37.5967 112.293 37.4255C112.122 37.2542 111.88 37.1686 111.568 37.1686C111.205 37.1686 110.898 37.2845 110.646 37.5161C110.394 37.7477 110.228 38.065 110.148 38.4679L109.347 43H105.993L107.504 34.4796H110.858L110.631 35.7637C110.964 35.3608 111.371 35.0385 111.855 34.7968C112.338 34.545 112.877 34.4191 113.471 34.4191ZM116.225 38.7398C116.386 37.8434 116.678 37.0679 117.101 36.4133C117.524 35.7486 118.033 35.245 118.627 34.9026C119.221 34.5501 119.851 34.3738 120.515 34.3738C121.069 34.3738 121.522 34.4896 121.875 34.7213C122.237 34.9429 122.489 35.25 122.63 35.6428L123.31 31.8207H126.664L124.685 43H121.331L121.543 41.8367C121.261 42.2295 120.898 42.5417 120.455 42.7734C120.022 42.995 119.528 43.1058 118.974 43.1058C118.118 43.1058 117.428 42.8187 116.905 42.2446C116.381 41.6706 116.119 40.8749 116.119 39.8577C116.119 39.475 116.154 39.1024 116.225 38.7398ZM122.101 38.7398C122.122 38.6491 122.132 38.5283 122.132 38.3772C122.132 38.0348 122.041 37.7729 121.86 37.5916C121.678 37.4003 121.432 37.3046 121.12 37.3046C120.757 37.3046 120.435 37.4305 120.153 37.6823C119.881 37.9341 119.704 38.2866 119.624 38.7398C119.604 38.8304 119.594 38.9513 119.594 39.1024C119.594 39.4448 119.684 39.7117 119.866 39.903C120.047 40.0843 120.294 40.175 120.606 40.175C120.968 40.175 121.286 40.0491 121.558 39.7973C121.84 39.5455 122.021 39.193 122.101 38.7398ZM130.179 36.0507C130.612 35.5572 131.096 35.1644 131.629 34.8724C132.173 34.5702 132.712 34.4191 133.246 34.4191L132.626 37.9995H131.675C131.04 37.9995 130.552 38.1103 130.209 38.3319C129.877 38.5535 129.66 38.9462 129.56 39.5102L128.94 43H125.587L127.097 34.4796H130.451L130.179 36.0507ZM136.37 34.4796L137.201 38.8002L139.467 34.4796H143.168L135.494 47.0789H131.823L134.753 42.577L132.638 34.4796H136.37Z" fill="white"/>
<path d="M20.9568 17.3088C20.7456 18.4992 20.256 19.5072 19.488 20.3328C18.72 21.1392 17.7984 21.6768 16.7232 21.9456C17.7216 22.1952 18.48 22.6752 18.9984 23.3856C19.536 24.0768 19.8048 24.8928 19.8048 25.8336C19.8048 26.1408 19.776 26.4672 19.7184 26.8128C19.4112 28.5984 18.576 29.9808 17.2128 30.96C15.8688 31.92 14.0928 32.4 11.8848 32.4H1.20001L4.80001 12.0096H15.1968C17.04 12.0096 18.4704 12.3744 19.488 13.104C20.5248 13.8144 21.0432 14.8608 21.0432 16.2432C21.0432 16.5696 21.0144 16.9248 20.9568 17.3088ZM14.2176 18.5472C14.2368 18.4512 14.2464 18.3264 14.2464 18.1728C14.2464 17.7888 14.1216 17.5104 13.872 17.3376C13.6416 17.1648 13.2768 17.0784 12.7776 17.0784H10.3008L9.78241 19.9584H12.2592C12.8352 19.9584 13.2864 19.8432 13.6128 19.6128C13.9392 19.3824 14.1408 19.0272 14.2176 18.5472ZM13.3536 25.8624C13.3728 25.7664 13.3824 25.6416 13.3824 25.488C13.3824 24.7584 12.8928 24.3936 11.9136 24.3936H9.00481L8.51521 27.2736H11.424C12 27.2736 12.4416 27.168 12.7488 26.9568C13.0752 26.7264 13.2768 26.3616 13.3536 25.8624Z" fill="white"/>
<path d="M47.5352 18.3744C48.0728 17.6256 48.7544 17.04 49.58 16.6176C50.4248 16.176 51.3752 15.9552 52.4312 15.9552C54.0632 15.9552 55.3784 16.5024 56.3768 17.5968C57.3752 18.6912 57.8744 20.208 57.8744 22.1472C57.8744 22.8768 57.8072 23.5872 57.6728 24.2784C57.3656 25.9872 56.8088 27.4752 56.0024 28.7424C55.196 29.9904 54.2264 30.9504 53.0936 31.6224C51.9608 32.2752 50.7608 32.6016 49.4936 32.6016C48.4376 32.6016 47.564 32.3904 46.8728 31.968C46.2008 31.5264 45.7304 30.9312 45.4616 30.1824L45.0584 32.4H38.6648L42.4376 11.088H48.8312L47.5352 18.3744ZM51.1928 24.2784C51.2312 24.1056 51.2504 23.8752 51.2504 23.5872C51.2504 22.9344 51.0776 22.4352 50.732 22.0896C50.3864 21.7248 49.916 21.5424 49.3208 21.5424C48.6296 21.5424 48.0152 21.7824 47.4776 22.2624C46.9592 22.7424 46.6232 23.4144 46.4696 24.2784C46.4312 24.4512 46.412 24.6816 46.412 24.9696C46.412 25.6224 46.5848 26.1312 46.9304 26.496C47.276 26.8416 47.7464 27.0144 48.3416 27.0144C49.0328 27.0144 49.6376 26.7744 50.156 26.2944C50.6936 25.8144 51.0392 25.1424 51.1928 24.2784Z" fill="white"/>
<path d="M65.9582 18.3744C66.4958 17.6256 67.1774 17.04 68.003 16.6176C68.8478 16.176 69.7982 15.9552 70.8542 15.9552C72.4862 15.9552 73.8014 16.5024 74.7998 17.5968C75.7982 18.6912 76.2974 20.208 76.2974 22.1472C76.2974 22.8768 76.2302 23.5872 76.0958 24.2784C75.7886 25.9872 75.2318 27.4752 74.4254 28.7424C73.619 29.9904 72.6494 30.9504 71.5166 31.6224C70.3838 32.2752 69.1838 32.6016 67.9166 32.6016C66.8606 32.6016 65.987 32.3904 65.2958 31.968C64.6238 31.5264 64.1534 30.9312 63.8846 30.1824L63.4814 32.4H57.0878L60.8606 11.088H67.2542L65.9582 18.3744ZM69.6158 24.2784C69.6542 24.1056 69.6734 23.8752 69.6734 23.5872C69.6734 22.9344 69.5006 22.4352 69.155 22.0896C68.8094 21.7248 68.339 21.5424 67.7438 21.5424C67.0526 21.5424 66.4382 21.7824 65.9006 22.2624C65.3822 22.7424 65.0462 23.4144 64.8926 24.2784C64.8542 24.4512 64.835 24.6816 64.835 24.9696C64.835 25.6224 65.0078 26.1312 65.3534 26.496C65.699 26.8416 66.1694 27.0144 66.7646 27.0144C67.4558 27.0144 68.0606 26.7744 68.579 26.2944C69.1166 25.8144 69.4622 25.1424 69.6158 24.2784Z" fill="white"/>
<path d="M80.4 37.8H86.4L85.2 43.2H73.2L79.1108 12.0096H85.5044L80.4 37.8Z" fill="white"/>
<path d="M93.2667 15.9552C95.4171 15.9552 97.1259 16.5312 98.3931 17.6832C99.6603 18.816 100.294 20.3712 100.294 22.3488C100.294 22.9056 100.236 23.5008 100.121 24.1344C99.9867 24.768 99.8811 25.1904 99.8043 25.4016H89.5515C89.5323 25.5168 89.5227 25.68 89.5227 25.8912C89.5227 26.9664 89.9835 27.504 90.9051 27.504C91.6155 27.504 92.1723 27.1872 92.5755 26.5536H99.3435C98.9211 27.7056 98.2587 28.7424 97.3563 29.664C96.4539 30.5664 95.3883 31.2864 94.1595 31.824C92.9499 32.3424 91.6731 32.6016 90.3291 32.6016C88.1787 32.6016 86.4699 32.0352 85.2027 30.9024C83.9547 29.7504 83.3307 28.1568 83.3307 26.1216C83.3307 25.5264 83.3883 24.912 83.5035 24.2784C83.8107 22.5888 84.4251 21.12 85.3467 19.872C86.2683 18.6048 87.4107 17.6352 88.7739 16.9632C90.1563 16.2912 91.6539 15.9552 93.2667 15.9552ZM93.8715 22.7808C93.8907 22.6848 93.9003 22.5408 93.9003 22.3488C93.9003 21.888 93.7563 21.5424 93.4683 21.312C93.1803 21.0816 92.8155 20.9664 92.3739 20.9664C91.2219 20.9664 90.4443 21.5712 90.0411 22.7808H93.8715Z" fill="white"/>
<path d="M106.953 32.6016C105.532 32.6016 104.265 32.3904 103.151 31.968C102.057 31.5456 101.193 30.96 100.559 30.2112C99.9448 29.4432 99.6376 28.5696 99.6376 27.5904C99.6376 27.2256 99.6568 26.9568 99.6952 26.784H105.83C105.81 27.264 105.945 27.6192 106.233 27.8496C106.54 28.08 106.953 28.1952 107.471 28.1952C107.798 28.1952 108.076 28.1184 108.306 27.9648C108.556 27.8112 108.681 27.6288 108.681 27.4176C108.681 27.1104 108.489 26.8704 108.105 26.6976C107.721 26.5056 107.087 26.2944 106.204 26.064C105.09 25.7568 104.159 25.44 103.41 25.1136C102.681 24.7872 102.038 24.3072 101.481 23.6736C100.943 23.0208 100.674 22.176 100.674 21.1392C100.674 20.1792 100.962 19.3056 101.538 18.5184C102.134 17.712 102.959 17.088 104.015 16.6464C105.09 16.1856 106.329 15.9552 107.73 15.9552C109.266 15.9552 110.582 16.2144 111.676 16.7328C112.79 17.2512 113.625 17.952 114.182 18.8352C114.738 19.7184 114.998 20.6976 114.959 21.7728H109.286C109.286 21.3312 109.151 20.9952 108.882 20.7648C108.614 20.5152 108.22 20.3904 107.702 20.3904C107.375 20.3904 107.097 20.4576 106.866 20.592C106.655 20.7264 106.55 20.9088 106.55 21.1392C106.55 21.4272 106.742 21.6672 107.126 21.8592C107.51 22.032 108.162 22.2624 109.084 22.5504C110.217 22.8768 111.148 23.2032 111.878 23.5296C112.626 23.8368 113.279 24.3072 113.836 24.9408C114.393 25.5552 114.671 26.3424 114.671 27.3024C114.671 28.9728 113.951 30.2784 112.511 31.2192C111.09 32.1408 109.238 32.6016 106.953 32.6016Z" fill="white"/>
<path fill-rule="evenodd" clip-rule="evenodd" d="M35.9176 32.2901L38.6641 16.8H32.5669L31.1113 25.0394C30.9648 25.7718 30.6627 26.3486 30.2049 26.7697C29.7472 27.1908 29.1887 27.4014 28.5296 27.4014C27.962 27.4014 27.5134 27.2458 27.1838 26.9345C26.8725 26.6232 26.7169 26.1838 26.7169 25.6162C26.7169 25.5063 26.7352 25.3049 26.7718 25.012L28.2275 16.8H22.1577L21.3514 21.3459C21.0634 23.1218 22.4612 24.5139 23.8937 25.2127C21.3585 25.2127 20.5134 26.5507 20.4078 27.2197L20.4059 27.2705C20.4028 27.3525 20.4 27.4271 20.4 27.5113C20.4 29.031 20.8028 30.2303 21.6084 31.1091C22.4141 31.9697 23.5676 32.4 25.069 32.4C26.1493 32.4 27.1289 32.1803 28.0077 31.7408C28.8866 31.2831 29.6282 30.688 30.2324 29.9556L29.8204 32.2901H35.9176Z" fill="white"/>
</svg>
