<svg width="28" height="31" viewBox="0 0 28 31" fill="none" xmlns="http://www.w3.org/2000/svg">
<path fill-rule="evenodd" clip-rule="evenodd" d="M5 1C3.34315 1 2 2.34315 2 4V27C2 28.6569 3.34315 30 5 30H22.8824C24.5392 30 25.8824 28.6569 25.8824 27V4C25.8824 2.34315 24.5392 1 22.8823 1H5ZM13.9412 24.8824C17.7097 24.8824 20.7647 21.8274 20.7647 18.0589C20.7647 14.2903 17.7097 11.2354 13.9412 11.2354C10.1727 11.2354 7.11768 14.2903 7.11768 18.0589C7.11768 21.8274 10.1727 24.8824 13.9412 24.8824ZM3.70587 3.55887C3.70587 3.08781 4.08775 2.70593 4.55881 2.70593H9.67646C10.1475 2.70593 10.5294 3.08781 10.5294 3.55887C10.5294 4.02994 10.1475 4.41181 9.67646 4.41181H4.55881C4.08775 4.41181 3.70587 4.02994 3.70587 3.55887ZM20.3382 2.70593C20.1027 2.70593 19.9117 2.89687 19.9117 3.1324C19.9117 3.36794 20.1027 3.55887 20.3382 3.55887H23.75C23.9855 3.55887 24.1764 3.36794 24.1764 3.1324C24.1764 2.89687 23.9855 2.70593 23.75 2.70593H20.3382ZM19.9117 4.83821C19.9117 4.60268 20.1027 4.41174 20.3382 4.41174H23.75C23.9855 4.41174 24.1764 4.60268 24.1764 4.83821C24.1764 5.07375 23.9855 5.26468 23.75 5.26468H20.3382C20.1027 5.26468 19.9117 5.07375 19.9117 4.83821ZM20.3382 6.11768C20.1027 6.11768 19.9117 6.30861 19.9117 6.54415C19.9117 6.77968 20.1027 6.97062 20.3382 6.97062H23.75C23.9855 6.97062 24.1764 6.77968 24.1764 6.54415C24.1764 6.30861 23.9855 6.11768 23.75 6.11768H20.3382Z" fill="black"/>
</svg>
