<svg width="30" height="30" viewBox="0 0 30 30" fill="none" xmlns="http://www.w3.org/2000/svg">
<path d="M3.75 13.0208C3.75 9.02384 3.75 7.02535 4.22189 6.35301C4.69379 5.68067 6.57291 5.03745 10.3311 3.75099L11.0472 3.5059C13.0062 2.8353 13.9858 2.5 15 2.5C16.0142 2.5 16.9938 2.8353 18.9528 3.5059L19.6689 3.75099C23.4271 5.03745 25.3062 5.68067 25.7781 6.35301C26.25 7.02535 26.25 9.02384 26.25 13.0208C26.25 13.6246 26.25 14.2793 26.25 14.9892C26.25 22.0368 20.9513 25.4569 17.6268 26.9091C16.725 27.303 16.2741 27.5 15 27.5C13.7259 27.5 13.275 27.303 12.3732 26.9091C9.0487 25.4569 3.75 22.0368 3.75 14.9892C3.75 14.2793 3.75 13.6246 3.75 13.0208Z" fill="black"/>
</svg>
